# xmcd
#
# Track frame offsets:
#	150
#	12710
#	23422
#	35411
#	49196
#	65607
#	77123
#	91422
#	104943
#	114101
#	126064
#	138595
#	149684
#	161642
#	175273
#
# Disc length: 2554 seconds
#
# Revision: 0
# Processed by: cddbd v1.5.2PL0 Copyright (c) Steve Scherf et al.
# Submitted via: audiograbber 1.83.01
#
DISCID=d409f80f
DTITLE=VA - Als Mama noch ein Teenie war CD 2
DYEAR=1900
DGENRE=Schlager
TTITLE0=Ramsey, Bill - Pigalle
TTITLE1=Boyer, Jacqueline - Mitsou
TTITLE2=Kraus, Peter - Schwarze Rose, Rosemarie
TTITLE3=Rauch, Fred and Reger, Joszy Trojan - Herz Schmerz-Polka
TTITLE4=W., Roland - Monja
TTITLE5=Backus, Gus - Der Mann im Mond
TTITLE6=Nilsen Brothers - Aber dich gibts nur einmal für 
TTITLE7=Wolff, Chris - Marina
TTITLE8=Martin, Ulli - Heute male ich ein Bild Cindy-Lou
TTITLE9=Felden, Markus - Das kannst du mir nicht verbieten
TTITLE10=Breck,Freddy - Rote Rosen
TTITLE11=Morgan, Manfred - Ticket
TTITLE12=Hagara, Willy - Mandolinen und Mondschein
TTITLE13=Assia, Lys - O mein Papa
TTITLE14=Black, Roy - Ganz in Weiß
EXTD=
EXTT0=
EXTT1=
EXTT2=
EXTT3=
EXTT4=
EXTT5=
EXTT6=
EXTT7=
EXTT8=
EXTT9=
EXTT10=
EXTT11=
EXTT12=
EXTT13=
EXTT14=
PLAYORDER=
